<svg xmlns="http://www.w3.org/2000/svg" width="24" height="25.5" viewBox="0 0 24 25.5" fill="none">
	<g clip-path="url(#a)" stroke="#050505" stroke-width="2.25" stroke-linecap="round" stroke-linejoin="round">
		<path d="M17 21.27v-2.001a4 4 0 0 0-3.999-4H5a4 4 0 0 0-3.999 4v1.999M9 11.27a4 4 0 1 0 0-8.001 4 4 0 0 0 0 8.001m14 9.998v-1.999a4.005 4.005 0 0 0-3-3.87m-4-12a4 4 0 0 1 0 7.749" />
	</g>
	<defs>
		<clipPath id="a">
			<path fill="#fff" d="M0 .18h24v24H0z" />
		</clipPath>
	</defs>
</svg>
