<svg xmlns="http://www.w3.org/2000/svg" width="60" height="60" viewBox="0 0 60 60">
	<path fill="#505050" d="M30 57.5c-13.893-3.087-25-16.195-25-30v-15l25-10 25 10v15c0 13.81-11.107 26.913-25 30M10 15v12.5a26.45 26.45 0 0 0 20 25 26.45 26.45 0 0 0 20-25V15L30 7.5Z" />
	<path fill="#505050" d="M36.25 21.25A6.25 6.25 0 0 1 30 27.5a6.25 6.25 0 0 1-6.25-6.25 6.25 6.25 0 0 1 12.5 0M17.5 37.5A14.45 14.45 0 0 0 30 45a14.45 14.45 0 0 0 12.5-7.5C42.437 32.76 34.145 30 30 30c-4.168 0-12.438 2.76-12.5 7.5" />
</svg>
