<svg xmlns="http://www.w3.org/2000/svg" class="ionicon" viewBox="0 0 48 48" width="48" height="48">
	<path d="M8.202 35.625c.112-.411-.135-.982-.37-1.393a4 4 0 0 0-.238-.356A18.73 18.73 0 0 1 4.5 23.563C4.467 13.04 13.193 4.5 23.984 4.5c9.411 0 17.266 6.519 19.102 15.173a18.7 18.7 0 0 1 .414 3.904c0 10.538-8.39 19.212-19.18 19.212-1.716 0-4.031-.431-5.294-.785s-2.524-.822-2.849-.948a2.9 2.9 0 0 0-1.042-.194 2.9 2.9 0 0 0-1.133.228l-6.359 2.295a1.5 1.5 0 0 1-.438.114.9.9 0 0 1-.897-.913 1.5 1.5 0 0 1 .056-.308z" fill="none" stroke="#929292" stroke-linecap="round" stroke-miterlimit="10" stroke-width="6" />
</svg>
