<svg xmlns="http://www.w3.org/2000/svg" width="48" height="48" viewBox="0 0 48 48">
	<g fill="none" stroke="#000" stroke-linecap="round" stroke-linejoin="round" stroke-width="3" color="#000">
		<path d="M43.834 21q0.054 0.468 0.086 0.94c0.106 1.66 0.106 3.38 0 5.04 -0.548 8.486 -7.212 15.246 -15.58 15.8a66 66 0 0 1 -8.68 0 9.8 9.8 0 0 1 -2.972 -0.678c-1.024 -0.42 -1.536 -0.632 -1.798 -0.6 -0.26 0.032 -0.638 0.31 -1.392 0.868 -1.332 0.98 -3.01 1.688 -5.5 1.626 -1.258 -0.03 -1.886 -0.046 -2.168 -0.526s0.068 -1.144 0.77 -2.474c0.974 -1.844 1.59 -3.956 0.656 -5.646 -1.61 -2.416 -2.976 -5.278 -3.176 -8.368a40 40 0 0 1 0 -5.04c0.548 -8.486 7.212 -15.244 15.58 -15.8a66 66 0 0 1 7.34 -0.074M23.992 25h0.016M16 25h0.018" />
		<path d="m41.736 4.88 1.386 1.384a3 3 0 0 1 0 4.242l-7.256 7.392a4 4 0 0 1 -2.094 1.102l-4.496 0.978a1 1 0 0 1 -1.19 -1.188l0.958 -4.47a4 4 0 0 1 1.102 -2.094l7.348 -7.348a3 3 0 0 1 4.242 0" />
	</g>
</svg>
