<svg xmlns="http://www.w3.org/2000/svg" width="48" height="48" viewBox="0 0 48 48">
	<path fill="#ffa700" d="M44 24c0 -11.046 -8.954 -20 -20 -20a19.94 19.94 0 0 0 -14 5.718V7.5a1.5 1.5 0 0 0 -3 0v7c0 0.828 0.672 1.5 1.5 1.5h7a1.5 1.5 0 0 0 0 -3H11.038a17 17 0 1 1 4.696 25.86l-0.54 -0.3 -7.972 2.222 2.226 -7.968 -0.302 -0.54A16.92 16.92 0 0 1 7 24c0 -1.35 0.158 -2.664 0.454 -3.924 0.16 -0.602 0.13 -1.776 -1.072 -2.04 -1.226 -0.268 -1.74 0.71 -1.87 1.438h0.002A20 20 0 0 0 4 24a19.92 19.92 0 0 0 2.23 9.184l-2.136 7.646a2.5 2.5 0 0 0 3.08 3.08l7.652 -2.134A19.92 19.92 0 0 0 24 44c11.046 0 20 -8.954 20 -20M24 17.5" />
</svg>
