<svg xmlns="http://www.w3.org/2000/svg" width="48" height="50" viewBox="0 0 48 50" fill="none">
	<path d="M45.08 13.84a5.56 5.56 0 0 0-3.88-4C37.76 9 24 9 24 9s-13.76 0-17.2.92a5.56 5.56 0 0 0-3.88 4A58 58 0 0 0 2 24.5a58 58 0 0 0 .92 10.66A5.56 5.56 0 0 0 6.8 39c3.44.92 17.2.92 17.2.92s13.76 0 17.2-.92a5.56 5.56 0 0 0 3.88-4c.624-3.464.932-6.98.92-10.5a58 58 0 0 0-.92-10.66" stroke="#929292" stroke-width="4" stroke-linecap="round" stroke-linejoin="round" />
	<path d="M19.5 31.04 31 24.5l-11.5-6.54z" stroke="#929292" stroke-width="4" stroke-linecap="round" stroke-linejoin="round" />
</svg>
