<svg xmlns="http://www.w3.org/2000/svg" width="60" height="60" viewBox="0 0 60 60">
	<path fill="none" stroke="#050505" stroke-linecap="round" stroke-linejoin="round" stroke-width="3.75" d="m14.828 17.34 3.188 10.622m14.018 14.023 10.628 3.188m-13.453 -14.38 14.398 -14.398M10 13.75a3.75 3.75 0 1 0 7.5 0 3.75 3.75 0 1 0 -7.5 0m32.5 0a3.75 3.75 0 1 0 7.5 0 3.75 3.75 0 1 0 -7.5 0m0 32.5a3.75 3.75 0 1 0 7.5 0 3.75 3.75 0 1 0 -7.5 0m-32.5 -7.5a11.25 11.25 0 1 0 22.5 0 11.25 11.25 0 1 0 -22.5 0" />
</svg>
