<svg xmlns="http://www.w3.org/2000/svg" width="60" height="60" viewBox="0 0 60 60">
	<path fill="none" stroke="#050505" stroke-linecap="round" stroke-linejoin="round" stroke-width="1.875" d="M56.875 30A26.875 26.875 0 0 1 30 56.875 26.875 26.875 0 0 1 3.125 30a26.875 26.875 0 0 1 53.75 0" />
	<path fill="none" stroke="#050505" stroke-linecap="round" stroke-linejoin="round" d="m28.75 34.032 2.657 2.571h3.294v3.534h3.487v3.439h5.236v-4.95l-9.4-9.968.07-.133a9.15 9.15 0 0 0-3.771-10.742 8.94 8.94 0 0 0-11.196 1.395 9.175 9.175 0 0 0-1.075 11.348 8.96 8.96 0 0 0 10.731 3.516Z" stroke-width="1.875" />
	<path fill="none" stroke="#050505" stroke-linecap="round" stroke-linejoin="round" stroke-width="1.875" d="M24.575 22.237a2.184 2.2 0 0 1-2.184 2.201 2.184 2.2 0 0 1-2.184-2.201 2.184 2.2 0 0 1 4.368 0" />
</svg>
