<svg xmlns="http://www.w3.org/2000/svg" width="60" height="60" viewBox="0 0 60 60">
	<g fill="none" stroke="#050505" stroke-linecap="round" stroke-linejoin="round" stroke-width="3.5" color="#050505">
		<path d="M42.5 29.512c0 -0.865 0 -1.298 0.13 -1.683 0.378 -1.12 1.375 -1.552 2.375 -2.008 1.12 -0.512 1.68 -0.767 2.237 -0.813 0.63 -0.05 1.262 0.085 1.802 0.388 0.715 0.4 1.215 1.165 1.725 1.785 2.357 2.865 3.538 4.298 3.967 5.875 0.35 1.275 0.35 2.61 0 3.882 -0.627 2.305 -2.615 4.235 -4.088 6.025 -0.752 0.912 -1.13 1.37 -1.605 1.638a3.175 3.175 0 0 1 -1.802 0.388c-0.557 -0.045 -1.117 -0.3 -2.24 -0.813 -1 -0.455 -1.995 -0.887 -2.373 -2.008 -0.13 -0.385 -0.13 -0.818 -0.13 -1.68zm-25 0c0 -1.09 -0.03 -2.067 -0.91 -2.833 -0.32 -0.278 -0.745 -0.47 -1.593 -0.858 -1.123 -0.51 -1.683 -0.767 -2.24 -0.813 -1.667 -0.135 -2.565 1.005 -3.525 2.175 -2.36 2.862 -3.54 4.295 -3.973 5.875a7.35 7.35 0 0 0 0 3.882c0.63 2.303 2.62 4.235 4.09 6.022 0.927 1.125 1.815 2.152 3.407 2.025 0.557 -0.045 1.117 -0.3 2.24 -0.813 0.85 -0.385 1.272 -0.58 1.593 -0.858 0.88 -0.765 0.91 -1.742 0.91 -2.83z" />
		<path d="M50 26.25V22.5c0 -9.665 -8.955 -17.5 -20 -17.5S10 12.835 10 22.5v3.75m40 17.5c0 11.25 -10 11.25 -20 11.25" />
	</g>
</svg>
