<svg xmlns="http://www.w3.org/2000/svg" width="60" height="60" viewBox="0 0 60 60">
	<path fill="#050505" d="M20.357 10.714a9.643 9.643 0 1 0 0 19.286 9.643 9.643 0 0 0 0-19.286m-6.429 9.643a6.429 6.429 0 1 1 12.857 0 6.429 6.429 0 0 1-12.857 0M42.857 15a7.5 7.5 0 1 0 0 15 7.5 7.5 0 0 0 0-15m-4.286 7.5a4.286 4.286 0 1 1 8.571 0 4.286 4.286 0 0 1-8.571 0M4.286 39.107a4.82 4.82 0 0 1 4.821-4.821h22.5a4.82 4.82 0 0 1 4.822 4.821v1.138a4 4 0 0 1-.036.519 10 10 0 0 1-.236 1.311 10.9 10.9 0 0 1-1.858 3.889c-2.173 2.9-6.318 5.465-13.942 5.465S8.588 48.864 6.416 45.965a10.9 10.9 0 0 1-1.856-3.889 9.6 9.6 0 0 1-.268-1.708l-.006-.123zM7.5 40.168v.039l.019.214c.021.201.064.504.159.874a7.7 7.7 0 0 0 1.307 2.741c1.444 1.922 4.532 4.179 11.372 4.179s9.928-2.256 11.37-4.179a7.6 7.6 0 0 0 1.307-2.741 6.4 6.4 0 0 0 .178-1.089l.002-.039v-1.061a1.607 1.607 0 0 0-1.607-1.607h-22.5A1.607 1.607 0 0 0 7.5 39.106zm29.143 6.161c1.656.508 3.701.814 6.21.814 5.936 0 9.253-1.706 11.055-3.763a7.5 7.5 0 0 0 1.564-2.818 6.4 6.4 0 0 0 .234-1.29l.004-.101v-.064a4.82 4.82 0 0 0-4.821-4.821H36.63a7 7 0 0 1 1.753 3.214h12.508a1.607 1.607 0 0 1 1.607 1.586l-.011.099a3 3 0 0 1-.101.478 4.3 4.3 0 0 1-.9 1.601c-1.009 1.157-3.315 2.666-8.634 2.666-2.016 0-3.6-.216-4.845-.551a13 13 0 0 1-1.365 2.951" />
</svg>
