<svg xmlns="http://www.w3.org/2000/svg" width="60" height="60" viewBox="0 0 60 60">
	<path fill="#050505" d="M22.5 7.5a9.375 9.375 0 1 1-9.375 9.375A9.375 9.375 0 0 1 22.5 7.5m0-3.75a13.125 13.125 0 1 0 13.125 13.125A13.125 13.125 0 0 0 22.5 3.75m18.75 52.5H37.5v-9.375a9.375 9.375 0 0 0-9.375-9.375h-11.25A9.375 9.375 0 0 0 7.5 46.875v9.375H3.75v-9.375A13.125 13.125 0 0 1 16.875 33.75h11.25A13.125 13.125 0 0 1 41.25 46.875zm0-48.75H60v3.75H41.25zm0 9.375H60v3.75H41.25zm0 9.375h13.125V30H41.25z" />
</svg>
