<svg xmlns="http://www.w3.org/2000/svg" width="60" height="60" viewBox="0 0 60 60">
	<path fill="#050505" fill-rule="evenodd" d="m52.86 13.68 1.234 4.605a3.43 3.43 0 0 1-1.036 3.45l-.166.139a5.358 5.358 0 0 0 2.376 9.504l.231.035a3.3 3.3 0 0 1 2.759 2.416l1.257 4.689a4.286 4.286 0 0 1-3.03 5.25L13.018 55.414a4.286 4.286 0 0 1-5.248-3.031l-1.182-4.411a3.74 3.74 0 0 1 1.068-3.706l.175-.15a5.358 5.358 0 0 0-2.539-9.443 3.71 3.71 0 0 1-2.99-2.7l-1.188-4.428a4.286 4.286 0 0 1 3.032-5.249L47.611 10.65a4.286 4.286 0 0 1 5.25 3.03m-4.462.65L5.305 25.877c-.595.16-.948.771-.789 1.366l.848 3.164a10.04 10.04 0 0 1 7.714 7.243 10.04 10.04 0 0 1-3.059 10.13l.848 3.164c.161.595.771.948 1.366.789l43.093-11.547c.595-.16.948-.771.789-1.366l-.846-3.163a10.04 10.04 0 0 1-7.714-7.244 10.04 10.04 0 0 1 3.058-10.13l-.848-3.164a1.114 1.114 0 0 0-1.366-.789m-1.375 23.099a3.214 3.214 0 1 1-6.21 1.663 3.214 3.214 0 0 1 6.21-1.663m-2.218-8.28a3.214 3.214 0 1 1-6.21 1.664 3.214 3.214 0 0 1 6.209-1.664m-2.219-8.279a3.214 3.214 0 1 1-6.21 1.664 3.214 3.214 0 0 1 6.21-1.664M31.482 6.8l2.734 3.904q.06.087.115.176L8.172 17.89 25.513 5.747A4.286 4.286 0 0 1 31.481 6.8" />
</svg>
